REM DIRINDEX 1\2,1\3
REM DIRNAME cjc132,folder01,folder02
TITLE ""
FILE "30.mp3" MP3
  TRACK 01 AUDIO
    TITLE "0:"
    INDEX 01 00:00:00
  TRACK 02 AUDIO
    TITLE "3:cjc132_0535"
    INDEX 01 00:00:15
  TRACK 03 AUDIO
    TITLE "0:"
    INDEX 01 00:01:34
  TRACK 04 AUDIO
    TITLE "2:cjc132_0536"
    INDEX 01 00:02:08
  TRACK 05 AUDIO
    TITLE "0:"
    INDEX 01 00:03:29
  TRACK 06 AUDIO
    TITLE "2:cjc132_0537"
    INDEX 01 00:04:03
  TRACK 07 AUDIO
    TITLE "0:"
    INDEX 01 00:05:40
  TRACK 08 AUDIO
    TITLE "2:cjc132_0538"
    INDEX 01 00:06:12
  TRACK 09 AUDIO
    TITLE "0:"
    INDEX 01 00:07:60
  TRACK 10 AUDIO
    TITLE "2:cjc132_0539"
    INDEX 01 00:08:34
  TRACK 11 AUDIO
    TITLE "0:"
    INDEX 01 00:09:59
  TRACK 12 AUDIO
    TITLE "2:cjc132_0540"
    INDEX 01 00:10:33
  TRACK 13 AUDIO
    TITLE "0:"
    INDEX 01 00:12:07
  TRACK 14 AUDIO
    TITLE "2:cjc132_0541"
    INDEX 01 00:13:18
  TRACK 15 AUDIO
    TITLE "0:"
    INDEX 01 00:14:51
  TRACK 16 AUDIO
    TITLE "2:cjc132_0542"
    INDEX 01 00:16:32
  TRACK 17 AUDIO
    TITLE "0:"
    INDEX 01 00:18:23
  TRACK 18 AUDIO
    TITLE "2:cjc132_0543"
    INDEX 01 00:20:37
  TRACK 19 AUDIO
    TITLE "0:"
    INDEX 01 00:22:07
  TRACK 20 AUDIO
    TITLE "2:cjc132_0544"
    INDEX 01 00:23:73
  TRACK 21 AUDIO
    TITLE "0:"
    INDEX 01 00:25:70
  TRACK 22 AUDIO
    TITLE "2:cjc132_0545"
    INDEX 01 00:28:13
  TRACK 23 AUDIO
    TITLE "0:"
    INDEX 01 00:30:03
  TRACK 24 AUDIO
    TITLE "2:cjc132_0546"
    INDEX 01 00:32:23
  TRACK 25 AUDIO
    TITLE "0:"
    INDEX 01 00:34:10
  TRACK 26 AUDIO
    TITLE "2:cjc132_0547"
    INDEX 01 00:36:17
  TRACK 27 AUDIO
    TITLE "0:"
    INDEX 01 00:37:59
  TRACK 28 AUDIO
    TITLE "2:cjc132_0548"
    INDEX 01 00:39:49
  TRACK 29 AUDIO
    TITLE "0:"
    INDEX 01 00:41:08
  TRACK 30 AUDIO
    TITLE "2:cjc132_0549"
    INDEX 01 00:42:65
  TRACK 31 AUDIO
    TITLE "0:"
    INDEX 01 00:44:34
  TRACK 32 AUDIO
    TITLE "2:cjc132_0550"
    INDEX 01 00:46:25
  TRACK 33 AUDIO
    TITLE "0:"
    INDEX 01 00:48:12
  TRACK 34 AUDIO
    TITLE "2:cjc132_0551"
    INDEX 01 00:50:21
  TRACK 35 AUDIO
    TITLE "0:"
    INDEX 01 00:51:65
  TRACK 36 AUDIO
    TITLE "2:cjc132_0552"
    INDEX 01 00:53:58
  TRACK 37 AUDIO
    TITLE "0:"
    INDEX 01 00:55:10
  TRACK 38 AUDIO
    TITLE "2:cjc132_0553"
    INDEX 01 00:56:61
  TRACK 39 AUDIO
    TITLE "0:"
    INDEX 01 00:58:26
  TRACK 40 AUDIO
    TITLE "2:cjc132_0554"
    INDEX 01 01:00:12
  TRACK 41 AUDIO
    TITLE "0:"
    INDEX 01 01:02:12
  TRACK 42 AUDIO
    TITLE "2:cjc132_0555"
    INDEX 01 01:04:31
  TRACK 43 AUDIO
    TITLE "0:"
    INDEX 01 01:05:69
  TRACK 44 AUDIO
    TITLE "2:cjc132_0556"
    INDEX 01 01:07:49
  TRACK 45 AUDIO
    TITLE "0:"
    INDEX 01 01:08:74
  TRACK 46 AUDIO
    TITLE "2:cjc132_0557"
    INDEX 01 01:10:45
  TRACK 47 AUDIO
    TITLE "0:"
    INDEX 01 01:11:74
  TRACK 48 AUDIO
    TITLE "2:cjc132_0558"
    INDEX 01 01:13:49
  TRACK 49 AUDIO
    TITLE "0:"
    INDEX 01 01:14:74
  TRACK 50 AUDIO
    TITLE "2:cjc132_0559"
    INDEX 01 01:16:46
  TRACK 51 AUDIO
    TITLE "0:"
    INDEX 01 01:18:11
  TRACK 52 AUDIO
    TITLE "2:cjc132_0560"
    INDEX 01 01:19:74
  TRACK 53 AUDIO
    TITLE "0:"
    INDEX 01 01:22:11
  TRACK 54 AUDIO
    TITLE "2:cjc132_0561"
    INDEX 01 01:24:45
  TRACK 55 AUDIO
    TITLE "0:"
    INDEX 01 01:26:19
  TRACK 56 AUDIO
    TITLE "2:cjc132_0562"
    INDEX 01 01:28:16
  TRACK 57 AUDIO
    TITLE "0:"
    INDEX 01 01:29:58
  TRACK 58 AUDIO
    TITLE "2:cjc132_0563"
    INDEX 01 01:31:47
  TRACK 59 AUDIO
    TITLE "0:"
    INDEX 01 01:33:34
  TRACK 60 AUDIO
    TITLE "2:cjc132_0564"
    INDEX 01 01:35:43
  TRACK 61 AUDIO
    TITLE "0:"
    INDEX 01 01:36:66
  TRACK 62 AUDIO
    TITLE "2:cjc132_0565"
    INDEX 01 01:38:34
  TRACK 63 AUDIO
    TITLE "0:"
    INDEX 01 01:39:68
  TRACK 64 AUDIO
    TITLE "2:cjc132_0566"
    INDEX 01 01:41:42
  TRACK 65 AUDIO
    TITLE "0:"
    INDEX 01 01:43:03
  TRACK 66 AUDIO
    TITLE "2:cjc132_0567"
    INDEX 01 01:44:60
  TRACK 67 AUDIO
    TITLE "0:"
    INDEX 01 01:46:31
  TRACK 68 AUDIO
    TITLE "2:cjc132_0568"
    INDEX 01 01:48:24
  TRACK 69 AUDIO
    TITLE "0:"
    INDEX 01 01:49:57
